<svg xmlns="http://www.w3.org/2000/svg" width="659" height="800" viewBox="0 0 659 800" version="1.1">
    <path d="" stroke="none" fill="#2e4eda" fill-rule="evenodd"/>
    <path d="M 330.966 33.028 C 323.547 33.897, 317.575 36.111, 314.264 39.222 L 312 41.349 312.006 193.924 C 312.009 295.793, 312.354 347.736, 313.044 350.219 C 317.205 365.200, 339.018 369.014, 348.616 356.439 L 351.500 352.661 352.043 318.580 C 352.342 299.836, 352.686 256.863, 352.808 223.085 C 352.976 176.461, 353.323 161.316, 354.250 160.198 C 355.241 159.005, 357.272 158.846, 364.986 159.355 C 376.901 160.143, 388.309 162.833, 417.774 171.803 C 453.209 182.592, 473.991 185.212, 494.140 181.431 C 507.663 178.894, 532.481 167.925, 533.208 164.165 C 533.369 163.335, 533.275 135.171, 533 101.578 C 532.503 40.927, 532.486 40.498, 530.447 40.206 C 529.318 40.045, 523.468 42.214, 517.447 45.026 C 498.310 53.966, 482.429 56.760, 460.911 54.975 C 443.074 53.495, 432.674 51.441, 408.136 44.549 C 366.805 32.940, 351.381 30.638, 330.966 33.028 M 161.329 62.458 C 157.216 64.247, 156.365 65.994, 154.086 77.319 C 151.794 88.714, 148.134 96.520, 142.317 102.421 C 137.110 107.703, 131.827 110.412, 122.459 112.606 C 118.631 113.502, 113.761 114.663, 111.635 115.187 C 103.862 117.102, 100.811 123.866, 104.502 131.003 C 106.013 133.926, 110.690 135.982, 115.856 135.994 C 119.177 136.002, 129.841 138.866, 133.398 140.706 C 135.040 141.555, 138.708 144.448, 141.548 147.134 C 148.136 153.364, 152.570 162.746, 154.467 174.468 C 156.330 185.978, 158.581 189, 165.290 189 C 170.735 189, 174.491 184.867, 176.001 177.212 C 179.032 161.842, 182.072 155.196, 189.634 147.416 C 195.478 141.403, 202.868 138.149, 214.316 136.550 C 219.437 135.835, 224.579 134.656, 225.742 133.929 C 229.933 131.312, 231.314 124.321, 228.449 120.230 C 226.227 117.058, 224.125 116.162, 213.740 113.958 C 201.762 111.415, 193.510 107.321, 187.575 100.977 C 181.594 94.583, 178.517 87.790, 176.618 76.791 C 174.790 66.203, 173.810 64.236, 169.452 62.415 C 165.385 60.716, 165.332 60.716, 161.329 62.458 M 473.290 100.029 C 470.974 101.207, 467.487 103.933, 465.540 106.088 C 462.172 109.816, 462 110.357, 462.004 117.253 C 462.008 126.066, 463.893 129.708, 470.674 134.008 C 476.650 137.798, 480.529 138.497, 485.697 136.716 C 491.071 134.865, 495.270 131.437, 498.021 126.657 C 502.544 118.797, 498.887 107.262, 490.010 101.388 C 484.567 97.786, 478.649 97.305, 473.290 100.029 M 126 240.654 C 99.336 244.747, 75.048 257.995, 59.605 276.872 C 46.860 292.450, 38.746 308.645, 34.743 326.500 C 32.787 335.221, 32.720 339.049, 32.595 450 C 32.523 512.975, 32.706 591.950, 33 625.500 L 33.535 686.500 36.321 695.451 C 41.992 713.668, 52.485 731.892, 65.051 745.347 C 82.518 764.051, 103.601 774.712, 130.500 778.443 C 141.429 779.958, 160.041 780.077, 339 779.775 C 535.038 779.445, 535.521 779.439, 544.500 777.327 C 557.518 774.265, 573.361 767.804, 582.529 761.819 C 592.191 755.511, 607.832 740.051, 614.216 730.500 C 620.358 721.312, 627.476 706.157, 630.255 696.354 L 632.482 688.500 632.799 512 C 633.091 349.563, 632.982 334.863, 631.430 327.500 C 622.266 284.003, 592.418 253.486, 547.589 241.781 C 539.791 239.745, 536.866 239.654, 466.326 239.259 L 393.151 238.849 391.921 241.148 C 390.981 242.905, 390.845 250.727, 391.345 274.259 C 392.076 308.642, 392.036 308.447, 399.185 312.094 C 402.881 313.980, 405.797 314.098, 460.782 314.587 C 492.926 314.874, 521.182 315.556, 524.553 316.127 C 532.901 317.541, 539.974 321.425, 547.087 328.500 C 554.473 335.848, 558.772 344.175, 560.091 353.690 C 560.694 358.039, 560.955 418.436, 560.781 513.096 L 560.500 665.500 558.158 671.991 C 553.930 683.710, 544.174 694.274, 532.021 700.292 L 525.542 703.500 333.469 703.500 L 141.396 703.500 133.859 699.775 C 121.459 693.646, 113.434 684.390, 108.329 670.324 L 106 663.909 106 508.111 C 106 357.937, 106.068 352.115, 107.890 346.819 C 108.930 343.798, 110.553 339.832, 111.497 338.006 C 114.002 333.163, 121.741 325.185, 127.582 321.425 C 137.173 315.251, 137.625 315.210, 203 314.483 C 259.349 313.857, 262.666 313.720, 265.644 311.895 C 272.155 307.904, 272.500 305.920, 272.500 272.500 C 272.500 256, 272.177 241.713, 271.781 240.750 C 271.106 239.106, 266.948 239.006, 203.281 239.098 C 149.294 239.176, 133.567 239.493, 126 240.654 M 402.465 369.952 C 397.202 372.085, 397.500 363.615, 397.500 510.904 C 397.500 586.032, 397.825 648.655, 398.223 650.067 C 399.633 655.070, 402.127 655.503, 429.413 655.471 C 443.211 655.455, 455.725 655.112, 457.221 654.709 C 458.718 654.306, 460.518 652.969, 461.221 651.738 C 462.236 649.961, 462.568 623.220, 462.828 522 C 463.009 451.875, 462.852 389.426, 462.478 383.224 C 461.568 368.095, 463.581 368.982, 430.300 369.063 C 416.110 369.098, 403.584 369.498, 402.465 369.952 M 304.750 461.441 L 301 464.072 301 555.568 C 301 632.420, 301.228 647.609, 302.422 650.469 C 304.598 655.676, 307.739 656.184, 335.500 655.817 C 359.148 655.505, 359.548 655.464, 362.750 653.062 L 366 650.624 365.996 558.562 C 365.993 468.549, 365.948 466.428, 364.011 463.250 C 362.341 460.512, 361.437 459.999, 358.265 459.996 C 356.194 459.994, 344.150 459.726, 331.500 459.401 L 308.500 458.810 304.750 461.441 M 208.364 533.170 C 207.189 533.738, 205.727 535.304, 205.114 536.649 C 203.904 539.304, 203.484 641.241, 204.653 648.320 C 205.806 655.297, 206.726 655.500, 237.183 655.500 L 263.955 655.500 266.727 652.728 L 269.500 649.956 269.798 595.302 C 270.019 554.827, 269.789 539.905, 268.911 537.784 C 266.555 532.098, 265.972 531.994, 237.027 532.068 C 220.946 532.109, 209.659 532.543, 208.364 533.170"
          stroke="none" fill="#2e4eda" fill-rule="evenodd"/>
</svg>